
    <svg
      xmlns="http://www.w3.org/2000/svg"
      viewBox="0 0 315 215"
      class="svg-logo"
      width="192"
      height="192"
      style="height: auto"
    >
        <g
          data-element="container"
          transform="translate(71.78571428571429 21.785714285714292) scale(0.2857142857142857)"
        >
          <g>
            <path
              id="fill_x5F_1_15_"
              fill="transparent"
              d="M145.497,145.497C100.713,190.279,69.643,244.177,55.933,300
            c13.711,55.823,44.78,109.721,89.564,154.503s98.681,75.852,154.504,89.564c55.823-13.711,109.721-44.781,154.503-89.564l0,0
            c44.782-44.782,75.852-98.68,89.563-154.503c-13.711-55.823-44.78-109.721-89.563-154.503l0,0
            C409.721,100.714,355.823,69.644,300,55.933C244.177,69.644,190.279,100.714,145.497,145.497z"
            ></path>
            <path
              id="frame_x5F_1_11_"
              d="M300,0C219.867,0,144.53,31.205,87.868,87.868C31.205,144.53,0,219.867,0,300
            s31.205,155.47,87.868,212.132C144.53,568.795,219.867,600,300,600s155.47-31.205,212.132-87.868
            C568.795,455.47,600,380.133,600,300s-31.205-155.47-87.868-212.132C455.47,31.205,380.133,0,300,0z M300,19.676
            c39.951,0,79.896,8.472,116.896,25.39c-27.141-6.93-56.733-8.686-87.778-4.93c-9.738,1.179-19.454,2.9-29.118,5.109
            c-9.664-2.208-19.38-3.929-29.118-5.109c-31.041-3.758-60.631-2.002-87.771,4.927C220.108,28.147,260.052,19.676,300,19.676z
             M448.561,151.439L448.561,151.439c43.061,43.06,72.935,94.885,86.119,148.561c-13.184,53.676-43.058,105.501-86.118,148.561l0,0
            c-43.06,43.06-94.885,72.935-148.561,86.119c-53.676-13.184-105.501-43.059-148.562-86.119
            C108.378,405.501,78.503,353.676,65.32,300c13.184-53.676,43.058-105.501,86.119-148.561c43.06-43.06,94.885-72.935,148.561-86.119
            C353.676,78.504,405.501,108.379,448.561,151.439z M108.598,108.598c33.255-33.255,78.958-50.851,130.802-50.851
            c5.874,0,11.828,0.228,17.851,0.683c-43.275,16.882-84.293,43.849-119.633,79.189c-35.337,35.338-62.303,76.352-79.185,119.623
            C53.97,198.07,71.577,145.618,108.598,108.598z M40.136,270.882c1.179,9.738,2.901,19.454,5.109,29.118
            c-2.208,9.664-3.929,19.381-5.109,29.118c-3.792,31.317-1.968,61.153,5.116,88.489C28.425,381.214,19.544,341.292,19.544,300
            s8.881-81.214,25.707-117.608C38.168,209.728,36.344,239.565,40.136,270.882z M58.434,342.758
            c16.882,43.271,43.847,84.285,79.185,119.623c35.341,35.34,76.359,62.307,119.634,79.189c-6.023,0.455-11.975,0.682-17.852,0.682
            c-51.84-0.003-97.55-17.598-130.802-50.851C71.577,454.382,53.97,401.93,58.434,342.758z M183.195,554.974
            c17.748,4.523,36.545,6.829,56.111,6.829c10.322,0,20.868-0.643,31.576-1.939c9.738-1.179,19.454-2.9,29.118-5.109
            c9.664,2.208,19.38,3.93,29.118,5.109c10.712,1.297,21.25,1.939,31.576,1.939c19.568,0,38.367-2.307,56.118-6.832
            C342.862,588.756,257.145,588.757,183.195,554.974z M491.402,491.402c-37.02,37.02-89.47,54.629-148.643,50.164
            c43.271-16.882,84.285-43.848,119.623-79.185c35.338-35.338,62.303-76.352,79.185-119.623
            C546.03,401.93,528.423,454.382,491.402,491.402z M559.864,329.118c-1.179-9.738-2.901-19.454-5.109-29.118
            c2.208-9.664,3.929-19.381,5.109-29.118c3.792-31.317,1.968-61.153-5.116-88.49c16.827,36.394,25.707,76.316,25.707,117.608
            s-8.881,81.214-25.707,117.608C561.832,390.272,563.656,360.435,559.864,329.118z M541.566,257.242
            c-16.882-43.271-43.847-84.285-79.185-119.623c-35.341-35.34-76.359-62.307-119.634-79.189c6.023-0.455,11.975-0.682,17.852-0.682
            c51.84,0,97.55,17.598,130.802,50.851C528.423,145.618,546.03,198.07,541.566,257.242z"
              fill="rgba(217, 128, 128, 1.0)"
            ></path>
          </g>
        </g>
        <g>
          <g
            data-element="icon"
            transform="scale(0.17140308494400538) translate(621.2473788071941 329.53689744737414)"
          >
            <path
              id="color_x5F_1_11_"
              fill="rgba(217, 128, 128, 1.0)"
              d="M558.223,367.41c-2.351-11.409-11.85-19.515-22.862-20.606l-39.554-191.962    c7.242-5.92,11.035-15.561,9.016-25.358c-2.893-14.046-16.624-23.088-30.673-20.193c-3.669,0.756-6.991,2.256-9.853,4.303    L284.406,57.737c-2.22-17.656-15.657-25.124-30.962-21.909c-25.008,5.253-21.508,30.503-19.49,33.35L72.348,217.836    c-4.619-1.901-9.838-2.492-15.1-1.408c-14.045,2.894-23.086,16.628-20.192,30.674c2.323,11.274,11.632,19.316,22.476,20.559    l45.155,171.274c-5.78,5.963-8.606,14.586-6.804,23.332c2.895,14.047,16.627,23.086,30.674,20.192    c5.188-1.069,9.688-3.619,13.16-7.114l191.837,63.654c0.03,0.149,0.051,0.299,0.081,0.447c2.894,14.047,16.626,23.088,30.673,20.193    c14.047-2.894,25.877-16.309,18.927-34.924l137.726-128.953c5.08,2.603,11.043,3.563,17.068,2.32    C552.076,395.189,561.115,381.456,558.223,367.41z M477.085,123.533c6.18-1.274,12.222,2.704,13.496,8.884    c1.272,6.182-2.704,12.224-8.886,13.497c-6.179,1.273-12.223-2.705-13.497-8.885C466.924,130.849,470.906,124.806,477.085,123.533z     M466.221,157.103l-54.738,150.693c-3.047-0.965-8.297-0.215-13.065,1.138L295.285,202.103c2.114-3.687,3.331-7.896,3.431-12.292    l158.144-42.178C459.127,151.593,462.379,154.839,466.221,157.103z M409.43,344.585c-6.179,1.273-12.224-2.704-13.498-8.885    c-1.273-6.18,2.705-12.223,8.887-13.496c6.18-1.274,12.223,2.704,13.496,8.885C419.588,337.269,415.609,343.312,409.43,344.585z     M199.822,324.892c-3.136-1.061-10.886-1.061-18.116,4.781l-96.573-75.112c1.985-3.536,3.155-7.544,3.308-11.729l161.888-40.547    c1.218,2.086,2.706,3.971,4.415,5.613L199.822,324.892z M199.247,361.892c-6.178,1.273-12.223-2.704-13.496-8.885    c-1.275-6.181,2.707-12.223,8.885-13.496c6.182-1.275,12.223,2.703,13.496,8.884S205.428,360.618,199.247,361.892z M269.875,215.006    c8.061,1.325,12.875-1.724,14.987-2.836l101.711,105.36c-2.213,2.867-3.823,6.184-4.689,9.742l-160.734,14.041    c-1.389-3.594-3.527-6.748-6.196-9.314L269.875,215.006z M282.22,72.231l172.756,53.642c-0.885,2.434-1.414,5.017-1.531,7.673    l-158.439,42.258c-3.781-6.279-10.072-10.675-17.221-12.089l-6.998-79.48C275.868,81.562,279.851,77.304,282.22,72.231z     M283.949,186.892c1.273,6.18-2.704,12.223-8.885,13.496s-12.225-2.704-13.498-8.884c-1.273-6.181,2.706-12.224,8.885-13.497    C276.633,176.732,282.672,180.711,283.949,186.892z M256.377,50.07c6.182-1.273,12.223,2.705,13.496,8.885    c1.273,6.181-2.703,12.224-8.885,13.497c-6.178,1.273-12.222-2.704-13.496-8.885C246.217,57.387,250.2,51.345,256.377,50.07z     M242.176,81.302c4.02,3.306,9.003,5.388,14.321,5.836l6.854,77.857c-9.686,3.752-16.169,12.964-16.544,23.232L84.917,228.774    c-0.354-0.607-0.727-1.201-1.127-1.772L242.176,81.302z M64.796,253.052c-6.181,1.273-12.224-2.704-13.498-8.885    c-1.273-6.181,2.706-12.224,8.885-13.496c6.183-1.274,12.225,2.704,13.498,8.885C74.953,245.735,70.977,251.778,64.796,253.052z     M125.622,468.216c-6.18,1.273-12.222-2.703-13.495-8.885c-1.276-6.18,2.706-12.223,8.884-13.496    c6.182-1.274,12.223,2.703,13.496,8.885C135.78,460.899,131.803,466.942,125.622,468.216z M131.555,432.401    c-5.619-2.32-13.692-0.759-13.799-0.735c0,0-43.344-166.734-43.076-166.877l98.133,76.323c-5.127,12.219,1.426,22.83,3.977,25.963    L131.555,432.401z M335.088,524.241l-186.365-61.84c1.713-5.32,0.213-14.82-5.256-21.752l45.236-65.326    c7.482,3.508,17.232,1.258,19.318-1.138l129.112,146.136C336.344,521.567,335.658,522.876,335.088,524.241z M218.877,364.587    c1.698-2.685,2.916-5.676,3.543-8.838l160.124-13.988c2.983,8.792,10.386,15.141,19.132,17.023l-42.72,149.452    c-1.692,0.009-6.521,0.095-10.968,2.485L218.877,364.587z M361.375,545.397c-6.182,1.273-12.223-2.704-13.496-8.885    c-1.276-6.18,2.706-12.224,8.885-13.496c6.18-1.274,12.222,2.703,13.496,8.885C371.532,538.081,367.555,544.124,361.375,545.397z     M374.332,513.2c-0.471-0.341-0.953-0.662-1.445-0.971l44.273-154.885c3.341-1.396,6.277-3.446,8.693-5.967l80.976,21.791    c0.031,1.561,0.856,9.662,3.569,12.633L374.332,513.2z M510.596,359.176l-77.953-20.977c0.611-3.229,1.043-17.868-8.061-24.022    c0,0,56.986-153.571,57.604-153.639l38.926,188.917C516.698,351.673,513.086,355.077,510.596,359.176z M535.094,383.841    c-6.18,1.273-12.222-2.703-13.496-8.885c-1.273-6.18,2.704-12.223,8.884-13.496c6.183-1.273,12.223,2.703,13.497,8.885    C545.251,376.524,541.275,382.567,535.094,383.841z"
            ></path>
          </g> 
        </g> 
    </svg>
